<?xml version="1.0" encoding="utf-8"?>
<!-- Generator: Adobe Illustrator 21.1.0, SVG Export Plug-In . SVG Version: 6.00 Build 0)  -->
<svg version="1.1" id="Vrstva_1" xmlns="http://www.w3.org/2000/svg" xmlns:xlink="http://www.w3.org/1999/xlink" x="0px" y="0px"
	 viewBox="0 0 595.3 166.5" style="enable-background:new 0 0 595.3 166.5;" xml:space="preserve">
<style type="text/css">
	.st0{fill:#AFAFAF;}
	.st1{fill:#F9BC14;}
	.st2{fill:#7F2D12;}
	.st3{fill:#FFFFFF;}
	.st4{fill:#F8D116;}
</style>
<path class="st3" d="M389.9,37.5c2.3,0.2,4.1,1.7,4.9,3.7c0.1,0.3,0.3,0.6,0.4,1l8.3,32.3c0.8,3-1,6.1-4,6.8
	c-0.6,0.1-1.2,0.2-1.7,0.2l0,0l-5.3-0.4l-2.7,38.4c-0.2,3.1-2.9,5.4-6,5.2c-3.1-0.2-5.4-2.9-5.2-6l5.4-76
	C384.2,39.6,386.9,37.3,389.9,37.5z"/>
<path class="st3" d="M266.6,40.4l0.2,1.9l1.7,18.7c0,0.4-0.1,0.7-0.2,1c-0.3,0.4-0.7,0.7-1.2,0.7c-0.5,0-1-0.2-1.3-0.5
	c-0.2-0.2-0.4-0.6-0.4-0.9l-1.8-19.9l-0.1-0.7l-4.1,0.4l0,0l0,0.2l1.8,20.4c0,0.4-0.1,0.7-0.2,1c-0.3,0.4-0.7,0.7-1.2,0.7
	c-0.5,0-1-0.2-1.3-0.5c-0.2-0.2-0.4-0.6-0.4-0.9l-1.8-20.4l0-0.2l0,0l-4.1,0.4l0.1,0.7l1.8,19.9c0,0.4-0.1,0.7-0.2,1
	c-0.3,0.4-0.7,0.7-1.2,0.7s-1-0.2-1.3-0.5c-0.2-0.2-0.4-0.6-0.4-0.9l-1.7-18.7l-0.2-1.9l-4.8,0.4l0.9,10.4l1,11.2l0.5,5.6
	c0.5,5.5,4.2,9.9,9.1,11.6l3.4,38.8c0.3,3.1,3,5.4,6.1,5.1c3.1-0.3,5.4-3,5.1-6.1l-3.4-38.8c4.5-2.6,7.4-7.6,6.9-13.1l-0.5-5.6
	l-1-11.2L271.4,40L266.6,40.4z"/>
<g>
	<path class="st4" d="M53.7,112.7H33.5c-2.9,0-5.4-2.2-5.4-5V66.1c0-2.4,2.2-4.6,5-4.6c2.7,0,5,2.2,5,4.6v37.6h15.6
		c2.6,0,4.9,1.9,4.9,4.4C58.6,110.7,56.4,112.7,53.7,112.7z"/>
	<path class="st4" d="M80.7,113.4c-11.6,0-18-7.6-18-17.9V66.3c0-2.7,2.2-4.7,5.1-4.7c2.7,0,5,2.2,5,4.7v29.3c0,5.2,2.5,8.8,8,8.8
		c5.4,0,7.9-3.7,7.9-8.8V66.3c0-2.5,2.2-4.7,5-4.7c2.9,0,5.2,2.2,5.2,4.7v29.3C98.7,105.9,92,113.4,80.7,113.4z"/>
	<path class="st4" d="M133.9,110.9l-16.6-29v26.8c0,2.5-2.4,4.7-5.1,4.7c-2.8,0-5-2.2-5-4.7V66.4c0-2.8,2.2-4.9,5.2-4.9
		c1.9,0,3.9,1.1,4.9,2.7c6.4,11.1,10,17.6,16.6,29.1V66.2c0-2.5,2.4-4.7,5.1-4.7c2.8,0,5,2.2,5,4.7v42.3c0,2.7-2.2,4.9-5.3,4.9
		C136.8,113.4,134.8,112.4,133.9,110.9z"/>
	<path class="st4" d="M161.2,94.5c0,6.2,2.2,10,8.6,10c2.3,0,4.2-0.6,6-1.7l0.7-0.4c0.9-0.6,1.4-1.1,3.1-1.1c2.7,0,4.7,2,4.7,4.3
		c0,4.2-7.2,7.7-14.9,7.7c-12.6,0-18.3-7.5-18.3-18.8V80.3c0-11.3,5.7-18.8,18.3-18.8c7.6,0,14.9,3.5,14.9,7.7c0,2.3-2,4.3-4.7,4.3
		c-1.6,0-2.1-0.5-3.1-1.1l-0.7-0.4c-1.8-1.1-3.7-1.7-6-1.7c-6.5,0-8.6,3.9-8.6,10V94.5z"/>
	<path class="st4" d="M220.9,113.4c-2.7,0-5-2.2-5-4.7V92h-15.3v16.7c0,2.5-2.3,4.7-5,4.7c-2.8,0-5-2.2-5-4.7V66.1
		c0-2.4,2.2-4.6,5-4.6c2.7,0,5,2.2,5,4.6v16.7h15.3V66.1c0-2.4,2.4-4.6,5-4.6c2.7,0,5,2.2,5,4.6v42.6
		C226,111.2,223.7,113.4,220.9,113.4z"/>
</g>
<g>
	<path class="st4" d="M449.6,110.9l-16.6-29v26.8c0,2.5-2.4,4.7-5.1,4.7c-2.8,0-5-2.2-5-4.7V66.4c0-2.8,2.2-4.9,5.2-4.9
		c1.9,0,3.9,1.1,4.9,2.7c6.4,11.1,10,17.6,16.6,29.1V66.2c0-2.5,2.4-4.7,5.1-4.7c2.8,0,5,2.2,5,4.7v42.3c0,2.7-2.2,4.9-5.3,4.9
		C452.5,113.4,450.5,112.4,449.6,110.9z"/>
	<path class="st4" d="M467.4,94.5V80.3c0-10.2,5.2-18.8,18.7-18.8c13.4,0,18.7,8.6,18.7,18.8v14.2c0,10.5-6.2,18.9-18.7,18.9
		C473.6,113.4,467.4,105,467.4,94.5z M477.4,80.3v14.2c0,5.7,2.7,9.8,8.6,9.8c5.9,0,8.6-4,8.6-9.8V80.3c0-5.8-2.3-9.7-8.6-9.7
		C479.7,70.6,477.4,74.5,477.4,80.3z"/>
	<path class="st4" d="M547.6,83.7c1,3.9,1.4,8,2.1,12c0.7-4,1.1-8,2.2-12l4.6-18.3c0.6-2.3,2.4-3.7,4.6-3.7c2.4,0,5.6,1.4,5.6,4.4
		c0,0.1,0,0.5-0.1,0.9l-10.8,41.8c-0.7,2.4-2.4,4.5-5.9,4.5c-3.4,0-5.2-2.2-6-4.6l-4.2-17.6c-0.9-3.7-1.3-7.7-1.9-11.5
		c-0.6,3.8-1,7.7-1.9,11.5l-4.3,17.7c-0.6,2.1-2.1,4.4-5.9,4.4c-2.9,0-5.3-2.4-6-4.5L509,67.4c-0.1-0.7-0.3-1.4-0.3-1.4
		c0-2.7,2.9-4.3,5.4-4.3c2.1,0,4.1,1.1,4.7,3.4l4.7,18.5c1,3.9,1.4,8,2.1,11.9c0.7-3.8,1.1-8.1,2-11.9l4.2-16.9
		c0.9-3.4,1.9-5.3,5.8-5.3c3.7,0,5,2.1,5.7,5.3L547.6,83.7z"/>
</g>
<path class="st3" d="M353.8,114.3c8-7.5,12.9-18.2,12.9-30c0-22.8-18.5-41.3-41.3-41.3c-1.3,0-2.5,0.1-3.8,0.2c-0.1,0-0.2,0-0.4,0
	c-0.1,0-0.2,0-0.2,0c-18,1.8-33.3,15.4-36.3,34.1c-0.4,2.2-0.5,4.4-0.5,6.6c0,0.1,0,0.2,0,0.3c0,0.4,0,0.8,0,1.2c0,0,0,0.1,0,0.1
	c0.7,22.2,18.9,39.9,41.2,39.9c6.9,0,13.5-1.7,19.2-4.8l11.9,16.5c1.8,2.5,5.3,3.1,7.8,1.3h0c2.5-1.8,3.1-5.3,1.3-7.8L353.8,114.3z
	 M344.7,107.2c-5.5,4.6-12.5,7.2-19.6,7.2c-1.6,0-3.3-0.1-5-0.4c-1.9-0.3-3.7-0.8-5.5-1.4c-11.4-4.3-19.5-15.4-19.5-28.3
	c0-16.7,13.6-30.3,30.3-30.3c12.2,0,22.7,7.2,27.5,17.6c2.4,5.4,3.2,11.3,2.2,17.2C354,96,350.3,102.5,344.7,107.2z"/>
</svg>
